<?xml version="1.0" encoding="utf-8"?>
<!-- Generator: Adobe Illustrator 21.0.0, SVG Export Plug-In . SVG Version: 6.00 Build 0)  -->
<svg version="1.1" id="Layer_1" xmlns="http://www.w3.org/2000/svg" xmlns:xlink="http://www.w3.org/1999/xlink" x="0px" y="0px"
	 width="586.5px" height="192px" viewBox="0 0 586.5 192" style="enable-background:new 0 0 586.5 192;" xml:space="preserve">
<style type="text/css">
	.st0{fill:#06A2CC;}
</style>
<g>
	<path d="M207.9,135.2V60.3h16.2v74.9H207.9z"/>
	<path d="M242.1,60.4h59.4c4.2,0,7.9,1.5,10.9,4.5c3,3,4.6,6.6,4.6,10.9v19.3c0,4.2-1.5,7.9-4.6,10.9c-3.1,3-6.7,4.5-10.9,4.5
		l-43.3,0.1c0.2,0,0.3,0.2,0.3,0.6c-0.1,0-0.2,0-0.3-0.1v24h-16.1V60.4z M258.2,76.5v17.8h42.4V76.5H258.2z"/>
	<path d="M393.1,60.3h16.1v74.9h-16.1v-29.3h-44.2v29.3h-16.1V60.3h16.1v29.3h44.2V60.3z"/>
	<path d="M494.7,60.3v16.2h-52.8v13.1h42.5v16.2h-42.5V119h52.8v16.2h-69.2V60.3H494.7z"/>
	<path d="M584.9,75.8v19.3c0,4.2-1.5,7.9-4.6,10.9c-3.1,3-6.7,4.5-10.9,4.5h-0.7l16.2,19.1v5.5h-16.6l-20.7-24.6l-21.4,0.1
		c0.2,0,0.3,0.2,0.3,0.6c-0.1,0-0.2,0-0.3-0.1v24H510V60.4h59.4c4.2,0,7.9,1.5,10.9,4.5C583.4,68,584.9,71.6,584.9,75.8z
		 M526.2,76.5v17.8h42.4V76.5H526.2z"/>
	<g>
		<path d="M128.9,135c0.9,0.1,1.8,0.2,2.8,0.2h59.3V119h-53.2L128.9,135z"/>
		<polygon points="161.2,76.5 190.9,76.5 190.9,60.3 170.2,60.3 		"/>
	</g>
	<path class="st0" d="M2.9,30.3h59.4c4.3,0,8,1.5,11,4.5c3,3,4.5,6.6,4.5,10.9v44.1c0,4.2-1.5,7.9-4.5,10.9c-3,3-6.7,4.5-11,4.5H2.9
		V30.3z M19,46.5V89h42.4V46.5H19z"/>
	<polygon class="st0" points="122.6,89 110,89 110,75.9 129.8,75.9 138.8,59.6 110,59.6 110,46.5 146.1,46.5 155.1,30.3 93.7,30.3 
		93.7,105.2 113.6,105.2 	"/>
	
		<rect id="XMLID_379_" x="41.1" y="95.4" transform="matrix(0.4845 -0.8748 0.8748 0.4845 -7.4898 180.1161)" width="215.9" height="2"/>
</g>
</svg>
