<svg xmlns="http://www.w3.org/2000/svg" xmlns:xlink="http://www.w3.org/1999/xlink" width="355.64" height="288.71" viewBox="0 0 355.64 288.71">
  <defs>
    <linearGradient id="linear-gradient" x1="142.49" y1="186.99" x2="231.95" y2="32.03" gradientUnits="userSpaceOnUse">
      <stop offset="0" stop-color="#0183e3"/>
      <stop offset="1" stop-color="#00e79e"/>
    </linearGradient>
  </defs>
  <title>Asset 1</title>
  <g id="Layer_2" data-name="Layer 2">
    <g id="Layer_1-2" data-name="Layer 1">
      <path d="M66.81,288.71a11.54,11.54,0,0,1-4.27-.76,12.24,12.24,0,0,1-3.68-2.35L60.23,284a11.26,11.26,0,0,0,3.08,2.07,8.78,8.78,0,0,0,3.59.68,5,5,0,0,0,3.15-.93,2.89,2.89,0,0,0,1.18-2.38v-.05a3.3,3.3,0,0,0-.22-1.21,2.46,2.46,0,0,0-.78-1,5.35,5.35,0,0,0-1.54-.81,21.32,21.32,0,0,0-2.52-.7,20.56,20.56,0,0,1-2.9-.83,7.48,7.48,0,0,1-2.05-1.14A4.25,4.25,0,0,1,60,276.15a5.11,5.11,0,0,1-.39-2.08V274a4.83,4.83,0,0,1,.47-2.11,4.94,4.94,0,0,1,1.34-1.68,6.51,6.51,0,0,1,2-1.11A7.7,7.7,0,0,1,66,268.7a10.59,10.59,0,0,1,3.74.6,11.52,11.52,0,0,1,3.1,1.79l-1.28,1.7a9.31,9.31,0,0,0-2.74-1.61,8.37,8.37,0,0,0-2.87-.5,4.68,4.68,0,0,0-3,.9,2.79,2.79,0,0,0-1.12,2.24v.05a3.19,3.19,0,0,0,.23,1.24,2.53,2.53,0,0,0,.8,1,5.53,5.53,0,0,0,1.62.83,18.57,18.57,0,0,0,2.64.71,11.32,11.32,0,0,1,4.79,2,4.28,4.28,0,0,1,1.54,3.5v0a5,5,0,0,1-.5,2.27,5.23,5.23,0,0,1-1.37,1.73,6.12,6.12,0,0,1-2.1,1.12A9.12,9.12,0,0,1,66.81,288.71Z" style="fill: #fff"/>
      <polygon points="101.67 280.74 93.58 268.98 96.24 268.98 102.8 278.71 109.42 268.98 111.97 268.98 103.89 280.71 103.89 288.44 101.67 288.44 101.67 280.74" style="fill: #fff"/>
      <path d="M139.8,288.71a11.5,11.5,0,0,1-4.27-.76,12,12,0,0,1-3.68-2.35l1.36-1.61a11.3,11.3,0,0,0,3.09,2.07,8.73,8.73,0,0,0,3.58.68,5,5,0,0,0,3.16-.93,2.9,2.9,0,0,0,1.17-2.38v-.05a3.11,3.11,0,0,0-.22-1.21,2.3,2.3,0,0,0-.78-1,5.22,5.22,0,0,0-1.54-.81,20.57,20.57,0,0,0-2.51-.7,20.73,20.73,0,0,1-2.91-.83,7.56,7.56,0,0,1-2-1.14,4.18,4.18,0,0,1-1.2-1.56,5.12,5.12,0,0,1-.38-2.08V274a4.83,4.83,0,0,1,.47-2.11,4.91,4.91,0,0,1,1.33-1.68,6.62,6.62,0,0,1,2-1.11,7.76,7.76,0,0,1,2.56-.41,10.63,10.63,0,0,1,3.74.6,11.83,11.83,0,0,1,3.1,1.79l-1.28,1.7a9.44,9.44,0,0,0-2.74-1.61,8.47,8.47,0,0,0-2.88-.5,4.7,4.7,0,0,0-3,.9,2.78,2.78,0,0,0-1.11,2.24v.05a3.39,3.39,0,0,0,.22,1.24,2.56,2.56,0,0,0,.81,1,5.59,5.59,0,0,0,1.61.83,19.35,19.35,0,0,0,2.64.71,11.37,11.37,0,0,1,4.8,2,4.28,4.28,0,0,1,1.54,3.5v0a5,5,0,0,1-1.88,4,6.07,6.07,0,0,1-2.09,1.12A9.12,9.12,0,0,1,139.8,288.71Z" style="fill: #fff"/>
      <polygon points="173.71 271.01 167.18 271.01 167.18 268.98 182.46 268.98 182.46 271.01 175.93 271.01 175.93 288.44 173.71 288.44 173.71 271.01" style="fill: #fff"/>
      <polygon points="204.22 268.98 218.29 268.98 218.29 270.98 206.42 270.98 206.42 277.63 217.03 277.63 217.03 279.63 206.42 279.63 206.42 286.44 218.43 286.44 218.43 288.44 204.22 288.44 204.22 268.98" style="fill: #fff"/>
      <polygon points="240.49 268.98 242.72 268.98 249.81 279.6 256.89 268.98 259.12 268.98 259.12 288.44 256.92 288.44 256.92 272.68 249.83 283.1 249.72 283.1 242.63 272.7 242.63 288.44 240.49 288.44 240.49 268.98" style="fill: #fff"/>
      <path d="M288.94,288.71a11.5,11.5,0,0,1-4.27-.76A12.12,12.12,0,0,1,281,285.6l1.36-1.61a11.3,11.3,0,0,0,3.09,2.07,8.76,8.76,0,0,0,3.58.68,5,5,0,0,0,3.16-.93,2.91,2.91,0,0,0,1.18-2.38v-.05a3.3,3.3,0,0,0-.22-1.21,2.46,2.46,0,0,0-.78-1,5.49,5.49,0,0,0-1.54-.81,21.32,21.32,0,0,0-2.52-.7,20.56,20.56,0,0,1-2.9-.83,7.48,7.48,0,0,1-2-1.14,4.15,4.15,0,0,1-1.19-1.56,5.11,5.11,0,0,1-.39-2.08V274a4.83,4.83,0,0,1,.47-2.11,4.91,4.91,0,0,1,1.33-1.68,6.74,6.74,0,0,1,2-1.11,7.76,7.76,0,0,1,2.56-.41,10.63,10.63,0,0,1,3.74.6,11.67,11.67,0,0,1,3.1,1.79l-1.28,1.7a9.44,9.44,0,0,0-2.74-1.61,8.47,8.47,0,0,0-2.88-.5,4.67,4.67,0,0,0-3,.9,2.76,2.76,0,0,0-1.12,2.24v.05a3.39,3.39,0,0,0,.22,1.24,2.56,2.56,0,0,0,.81,1,5.53,5.53,0,0,0,1.62.83,18.77,18.77,0,0,0,2.63.71,11.37,11.37,0,0,1,4.8,2,4.28,4.28,0,0,1,1.54,3.5v0a5,5,0,0,1-.5,2.27,5.23,5.23,0,0,1-1.37,1.73,6.21,6.21,0,0,1-2.1,1.12A9.12,9.12,0,0,1,288.94,288.71Z" style="fill: #fff"/>
    </g>
    <g id="Layer_3" data-name="Layer 3">
      <path d="M35.18,234.55,24.3,210.12l-11,24.43ZM21.83,203.83H26.9l21.83,48.24H42.91L37.3,239.41H11.23L5.54,252.07H0Z" style="fill: #fff"/>
      <path d="M93.23,252.89A25.57,25.57,0,0,1,83.07,251a22.57,22.57,0,0,1-12.52-13.11,26.91,26.91,0,0,1-1.68-9.62v-.13a25.76,25.76,0,0,1,1.74-9.41,24.82,24.82,0,0,1,4.9-7.91,23.24,23.24,0,0,1,17.38-7.46,33.37,33.37,0,0,1,5.51.42,23.45,23.45,0,0,1,4.65,1.23,22.42,22.42,0,0,1,4,2,32.78,32.78,0,0,1,3.66,2.7l-3.49,4.11a24.29,24.29,0,0,0-2.87-2.23,19.37,19.37,0,0,0-3.26-1.71,20.72,20.72,0,0,0-3.83-1.13,24.28,24.28,0,0,0-4.62-.41,17.14,17.14,0,0,0-7.32,1.57,17.94,17.94,0,0,0-5.75,4.25,20,20,0,0,0-3.76,6.26A21.15,21.15,0,0,0,74.48,228v.14a22.81,22.81,0,0,0,1.33,7.94,18.68,18.68,0,0,0,3.8,6.29,17.26,17.26,0,0,0,6,4.18A19.72,19.72,0,0,0,93.44,248a21.17,21.17,0,0,0,7.73-1.41,22.55,22.55,0,0,0,6.09-3.38V231.34H92.68v-4.86h19.78v19.09a30.75,30.75,0,0,1-8.24,5.17A27.14,27.14,0,0,1,93.23,252.89Z" style="fill: #fff"/>
      <rect x="137.94" y="204.17" width="5.41" height="47.91" style="fill: #fff"/>
      <polygon points="170.19 204.17 175.59 204.17 175.59 247.08 202.56 247.08 202.56 252.07 170.19 252.07 170.19 204.17" style="fill: #fff"/>
      <rect x="225.84" y="204.17" width="5.41" height="47.91" style="fill: #fff"/>
      <polygon points="270.76 209.16 254.67 209.16 254.67 204.17 292.32 204.17 292.32 209.16 276.23 209.16 276.23 252.07 270.76 252.07 270.76 209.16" style="fill: #fff"/>
      <polygon points="330.25 233.11 310.33 204.17 316.9 204.17 333.05 228.12 349.34 204.17 355.64 204.17 335.72 233.05 335.72 252.07 330.25 252.07 330.25 233.11" style="fill: #fff"/>
    </g>
    <g id="Layer_2-2" data-name="Layer 2">
      <path d="M264.71,101.15,222.47,76.76V26.55l-1.26-.73L177.72.71,176.48,0l-1.23.71-44,25.42-1.27.73,0,1.45.52,48.45L88.26,101.15l-1.25.72V155l1.25.72,43.49,25.1,1.24.73,1.25-.73,42.24-24.38,42.24,24.38,1.25.73,1.25-.73,43.49-25.1L266,155V101.87Zm-6.22,2.16L220,125.54l-38.51-22.23L220,81.07Zm-82-2.88L138,78.19l38.25-22.08L215,78.21Zm41-26.53L181.22,53.23l36.26-20.94Zm-41-68.16L215,28,176.21,50.37,137.46,28.28Zm-5.26,47.52L135.44,73.91,135,32.6ZM133,81.07l38.51,22.24L133,125.54,94.48,103.31ZM92,107.62l36,20.79L92,149.2Zm41,68.13-38.5-22.23L133,131.29l38.51,22.23Zm43.49-25.11h0L138,128.42l38.51-22.24L215,128.42l-38.51,22.23ZM220,175.75l-38.51-22.23L220,131.29l38.51,22.23Zm41-26.55-36-20.79,36-20.79Z" style="fill: url(#linear-gradient)"/>
    </g>
  </g>
</svg>
