<svg xmlns="http://www.w3.org/2000/svg" width="178.95" height="181.51" viewBox="0 0 178.95 181.51">
  <title>Asset 2</title>
  <g id="Layer_2" data-name="Layer 2">
    <g id="Layer_2-2" data-name="Layer 2">
      <path d="M177.7,101.15,135.46,76.76V26.55l-1.26-.73L90.71.71,89.48,0,88.24.71l-44,25.42-1.27.73,0,1.45.52,48.45L1.25,101.15,0,101.87V155l1.25.72,43.49,25.1,1.25.73,1.24-.73L89.48,156.4l42.23,24.38,1.26.73,1.24-.73,43.49-25.1L179,155V101.87Zm-6.22,2.16L133,125.54,94.46,103.31,133,81.07Zm-82-2.88L51,78.19,89.21,56.11,128,78.21Zm41-26.53L94.21,53.23l36.26-20.94Zm-41-68.16L128,28,89.2,50.37,50.45,28.28ZM84.21,53.26,48.43,73.91,48,32.6ZM46,81.07l38.5,22.24L46,125.54,7.48,103.31ZM5,107.62l36,20.79L5,149.2Zm41,68.13L7.48,153.52,46,131.29,84.5,153.52Zm43.49-25.11h0L51,128.42l38.51-22.24L128,128.42,89.48,150.65ZM133,175.75,94.45,153.52,133,131.29l38.51,22.23Zm41-26.55-36-20.79,36-20.79Z" style="fill: #fff"/>
    </g>
  </g>
</svg>
