<svg height='100px' width='100px'  fill="#018cdd" xmlns="http://www.w3.org/2000/svg" xmlns:xlink="http://www.w3.org/1999/xlink" version="1.1" x="0px" y="0px" viewBox="0 0 64 64" style="enable-background:new 0 0 64 64;" xml:space="preserve"><g><g><g><g><path d="M10.66,25.009c-2.917,0-5.291-2.385-5.291-5.315c0-2.932,2.374-5.316,5.291-5.316s5.291,2.385,5.291,5.316      C15.951,22.624,13.578,25.009,10.66,25.009z M10.66,16.377c-1.814,0-3.291,1.487-3.291,3.316c0,1.828,1.477,3.315,3.291,3.315      s3.291-1.487,3.291-3.315C13.951,17.864,12.475,16.377,10.66,16.377z"></path></g><g><path d="M10.66,58H6.476c-0.767,0-1.39-0.625-1.39-1.393V41.285l-1.278-1.314c-0.026-0.027-0.051-0.056-0.074-0.085      C2.616,38.44,2,36.615,2,34.744v-5.35c0-2.065,1.326-3.907,3.3-4.585c0.038-0.013,0.078-0.023,0.117-0.032      c1.082-0.229,2.103-0.445,2.52,0.389l2.74,5.397l2.743-5.403c0.356-0.896,1.567-0.609,2.542-0.377      c0.025,0.006,0.049,0.013,0.074,0.021c1.964,0.629,3.283,2.475,3.283,4.591v5.35c0,1.871-0.616,3.696-1.734,5.142l-1.351,1.486      v15.2c0,0.768-0.624,1.392-1.39,1.392h-3.917C10.842,57.987,10.753,58,10.66,58z M7.085,56H9.66V41.307c0-0.553,0.448-1,1-1      s1,0.447,1,1v14.657h2.575V35.743c0-0.553,0.448-1,1-1s1,0.447,1,1v2.61c0.688-1.004,1.085-2.29,1.085-3.609v-5.35      c0-1.231-0.745-2.301-1.858-2.675c-0.178-0.041-0.371-0.08-0.538-0.108l-3.124,6.16c-0.229,0.461-0.701,0.747-1.223,0.705      c-0.463-0.033-0.862-0.322-1.042-0.748l-3.1-6.105c-0.167,0.026-0.357,0.061-0.54,0.098C4.759,27.136,4,28.203,4,29.395v5.35      c0,1.295,0.383,2.558,1.085,3.599v-2.6c0-0.553,0.448-1,1-1s1,0.447,1,1V56z M10.018,31.863      c-0.002,0.003-0.004,0.007-0.006,0.011L10.018,31.863z M15.241,25.985l-0.078,0.154C15.192,26.093,15.218,26.042,15.241,25.985z       M6.151,26.066c0.002,0.003,0.003,0.007,0.005,0.01L6.151,26.066z"></path></g></g><g><g><rect x="37.249" y="44.785" width="9.866" height="2"></rect></g><g><rect x="41.181" y="39.22" width="2" height="6.565"></rect></g><g><rect x="24.645" y="11.287" width="2" height="22.874"></rect></g><g><rect x="57.75" y="11.287" width="2" height="22.874"></rect></g><g><path d="M59.698,12.287l-35.103-0.021c-1.275-0.266-2.201-1.576-2.201-3.116v-0.18C22.395,7.305,23.451,6,24.799,6h34.796      C60.944,6,62,7.305,62,8.971v0.18c0,1.54-0.926,2.851-2.201,3.116L59.698,12.287z M24.936,10.287h34.522      C59.731,10.174,60,9.721,60,9.15v-0.18C60,8.345,59.696,8,59.595,8H24.799c-0.101,0-0.405,0.345-0.405,0.971v0.18      C24.395,9.721,24.663,10.174,24.936,10.287z"></path></g><g><path d="M59.595,39.282H24.799c-1.349,0-2.405-1.306-2.405-2.972v-0.179c0-1.666,1.056-2.971,2.405-2.971h34.796      c1.349,0,2.405,1.305,2.405,2.971v0.179C62,37.977,60.944,39.282,59.595,39.282z M24.799,35.161      c-0.101,0-0.405,0.345-0.405,0.971v0.179c0,0.627,0.304,0.972,0.405,0.972h34.796c0.101,0,0.405-0.345,0.405-0.972v-0.179      c0-0.626-0.304-0.971-0.405-0.971H24.799z"></path></g><g><g><path d="M41.911,31.052c-4.424,0-8.022-3.617-8.022-8.063s3.599-8.063,8.022-8.063s8.023,3.617,8.023,8.063       S46.335,31.052,41.911,31.052z M41.911,16.925c-3.321,0-6.022,2.72-6.022,6.063s2.702,6.063,6.022,6.063       c3.321,0,6.023-2.72,6.023-6.063S45.232,16.925,41.911,16.925z"></path></g><g><path d="M40.732,26.765c-0.345,0-0.689-0.091-1.003-0.271c-0.633-0.364-1.011-1.02-1.011-1.752v-3.506       c0-0.732,0.378-1.388,1.011-1.752c0.631-0.364,1.384-0.36,2.013,0.003l3.019,1.753c0.629,0.366,1.005,1.02,1.005,1.749       s-0.376,1.383-1.005,1.749l-3.019,1.753C41.426,26.673,41.079,26.765,40.732,26.765z M40.738,21.217l-0.02,3.524l3.039-1.734       V22.97L40.738,21.217z"></path></g></g></g></g></g></svg>