<svg height='100px' width='100px'  fill="#1a1a1a" xmlns="http://www.w3.org/2000/svg" xmlns:xlink="http://www.w3.org/1999/xlink" version="1.1" x="0px" y="0px" viewBox="0 0 64 64" style="enable-background:new 0 0 64 64;" xml:space="preserve"><g><g><g><g><path d="M49.796,62H14.204C11.335,62,9,59.642,9,56.744V7.256C9,4.358,11.335,2,14.204,2h27.345      c0.252,0,0.494,0.095,0.679,0.266l12.451,11.518C54.884,13.973,55,14.239,55,14.518v42.226C55,59.642,52.665,62,49.796,62z       M14.204,4C12.438,4,11,5.461,11,7.256v49.487C11,58.539,12.438,60,14.204,60h35.592C51.563,60,53,58.539,53,56.744V14.955      L41.157,4H14.204z"></path></g><g><path d="M53.985,15.518h-9.848c-1.979,0-3.589-1.625-3.589-3.622V3c0-0.552,0.447-1,1-1s1,0.448,1,1v8.896      c0,0.894,0.713,1.622,1.589,1.622h9.848c0.553,0,1,0.448,1,1S54.538,15.518,53.985,15.518z"></path></g></g><g><g><g><g><g><rect x="21.22" y="18.95" width="26.829" height="2"></rect></g></g></g><g><rect x="15.951" y="18.288" width="3.263" height="3.21"></rect></g></g><g><g><rect x="21.22" y="27.509" width="26.829" height="2"></rect></g><g><rect x="15.951" y="26.848" width="3.263" height="3.21"></rect></g></g><g><g><rect x="21.22" y="36.604" width="26.829" height="2"></rect></g><g><rect x="15.951" y="35.942" width="3.263" height="3.21"></rect></g></g><g><g><rect x="21.22" y="45.163" width="26.829" height="2"></rect></g><g><rect x="15.951" y="44.502" width="3.263" height="3.21"></rect></g></g></g></g></g></svg>