<svg height='100px' width='100px'  fill="#0084E9" xmlns="http://www.w3.org/2000/svg" xmlns:xlink="http://www.w3.org/1999/xlink" version="1.1" x="0px" y="0px" viewBox="0 0 24 24" style="enable-background:new 0 0 24 24;" xml:space="preserve"><title>timer-2</title><path d="M16,9.3c-0.9,3-1.4,4.4-1.8,4.8c-1.1,1.2-3,1.3-4.2,0.1s-1.3-3-0.1-4.2c0,0,0.1-0.1,0.1-0.1c0.4-0.4,1.9-0.9,4.8-1.8  c0.5-0.2,1.1,0.1,1.2,0.7C16,8.9,16,9.1,16,9.3L16,9.3z M11.3,11.3c-0.4,0.4-0.4,1,0,1.4c0.4,0.4,1,0.4,1.4,0  c0.1-0.1,0.4-0.9,0.8-2.2C12.2,10.9,11.3,11.2,11.3,11.3L11.3,11.3z M8,18.9C8,19,8.1,19,8.2,19c0,0,0.1,0.1,0.2,0.1  C8.2,19.1,8.1,19,8,18.9z"></path><path d="M15.6,19.1c0,0,0.1,0,0.2-0.1c0.1,0,0.2-0.1,0.2-0.1C15.9,19,15.8,19.1,15.6,19.1z"></path><path d="M12,2C6.5,2,2,6.5,2,12v0c0,1.7,0.4,3.3,1.2,4.7c0.2,0.3,0.4,0.7,0.6,1C3.8,17.8,3.9,17.9,4,18c0.9,1.2,2,2.2,3.3,2.9  C7.4,20.9,7.5,21,7.7,21c0.5,0.2,1,0.4,1.5,0.6c0.1,0,0.2,0.1,0.4,0.1c0.2,0,0.3,0.1,0.5,0.1c0.1,0,0.3,0.1,0.4,0.1c0,0,0,0,0.1,0  c0.1,0,0.2,0,0.4,0c0.4,0,0.8,0.1,1.2,0.1s0.8,0,1.2-0.1c0.1,0,0.2,0,0.4,0c0,0,0.1,0,0.1,0c0.2,0,0.3,0,0.4-0.1  c0.2,0,0.3-0.1,0.5-0.1c0.1,0,0.2-0.1,0.4-0.1c0.5-0.2,1-0.3,1.5-0.6c0.1-0.1,0.2-0.1,0.4-0.2c1.3-0.7,2.4-1.7,3.3-2.9  c0.1-0.1,0.2-0.2,0.2-0.3c0.2-0.3,0.4-0.6,0.6-0.9c0,0,0,0,0,0c0.8-1.4,1.2-3,1.2-4.7c0,0,0,0,0,0C22,6.5,17.5,2,12,2z M18.7,16.4  c-0.1,0.1-0.1,0.2-0.2,0.3c-0.3,0.5-0.8,0.9-1.2,1.3c-0.1,0.1-0.2,0.2-0.4,0.3c-0.2,0.1-0.3,0.3-0.5,0.4c-0.1,0.1-0.2,0.2-0.4,0.2  C16,19,15.9,19,15.8,19c0,0-0.1,0.1-0.2,0.1c0,0-0.1,0-0.1,0c-0.1,0.1-0.3,0.1-0.4,0.2c-0.2,0.1-0.4,0.1-0.5,0.2  c-0.2,0-0.3,0.1-0.5,0.1c-0.2,0.1-0.3,0.1-0.5,0.1c-0.2,0-0.3,0.1-0.5,0.1c0,0-0.1,0-0.2,0c-0.3,0-0.6,0.1-1,0.1c0,0,0,0,0,0  c-0.3,0-0.6,0-1-0.1c-0.1,0-0.1,0-0.2,0c-0.2,0-0.3,0-0.5-0.1c-0.2,0-0.3-0.1-0.5-0.1c-0.2,0-0.3-0.1-0.5-0.1  c-0.2-0.1-0.3-0.1-0.5-0.2c-0.1-0.1-0.3-0.1-0.4-0.2c0,0-0.1,0-0.1,0c0,0-0.1,0-0.2-0.1C8.1,19,8,19,8,18.9  c-0.1-0.1-0.2-0.1-0.4-0.2c-0.2-0.1-0.4-0.2-0.5-0.4c-0.1-0.1-0.2-0.2-0.4-0.3c-0.5-0.4-0.9-0.8-1.2-1.3c-0.1-0.1-0.1-0.2-0.2-0.3  C5.2,16.2,5.1,16,5,15.8C4.5,14.9,4.2,14,4.1,13H5c0.5,0,1-0.5,1-1s-0.5-1-1-1H4.1C4.5,7.4,7.4,4.5,11,4.1V5c0,0.5,0.5,1,1,1  s1-0.5,1-1V4.1c3.6,0.5,6.5,3.3,6.9,6.9H19c-0.5,0-1,0.5-1,1s0.5,1,1,1h0.9c-0.1,1-0.4,1.9-0.9,2.8C18.9,16,18.8,16.2,18.7,16.4z"></path></svg>